PathFileType	4	(X/Y/Z)	C:/Users/beibeiliu/ov580/test_trc/User3\sequence.25_training_dense_right.trc
DataRate	CameraRate	NumFrames	NumMarkers	Units	OrigDataRate	OrigDataStartFrame	OrigNumFrames
120	120	24	19	mm	120	69	274
Frame#	Time	ThumbCMC			ThumbMCP			ThumbIP			ThumbTip			IndexMCP			IndexPIP			IndexTip			MiddleMCP			MiddlePIP			MiddleTip			RingMCP			RingPIP			RingTip			PinkyMCP			PinkyPIP			PinkyTip			BackHand1			BackHand2			BackHand3	
		X0	Y0	Z0	X1	Y1	Z1	X2	Y2	Z2	X3	Y3	Z3	X4	Y4	Z4	X5	Y5	Z5	X6	Y6	Z6	X7	Y7	Z7	X8	Y8	Z8	X9	Y9	Z9	X10	Y10	Z10	X11	Y11	Z11	X12	Y12	Z12	X13	Y13	Z13	X14	Y14	Z14	X15	Y15	Z15	X16	Y16	Z16	X17	Y17	Z17	X18	Y18	Z18	
68	0.566667	178.326	46.0316	28.9765	162.188	55.3756	7.04248	145.993	65.2441	-20.9542	128.175	60.8613	-36.9453	141.199	28.7105	-36.0829	111.295	43.0961	-35.1721	120.534	54.3376	-4.10275	120.917	17.5308	-31.0267	103.51	32.7214	-12.3431	132.162	29.0324	14.9684	117.669	0.273096	-19.2433	100.11	19.1103	-3.20581	125.919	22.4415	21.2902	123.931	-18.8673	-13.1324	109.644	-13.8131	-24.5774	87.5186	-8.70458	-40.8504	169.422	-15.0219	8.29441	180.972	-18.8697	34.3135	186.677	9.89856	12.4664	
69	0.575	174.007	50.3314	29.7444	159.104	62.9876	9.71717	143.918	71.2593	-19.5115	129.02	70.9045	-33.3944	143.98	43.707	-39.1475	115.555	54.8351	-33.4643	121.796	58.6393	-1.15267	130.644	27.0038	-33.0416	108.02	40.2491	-14.3892	134.389	30.6501	14.266	127.308	7.73523	-22.8299	105.43	22.8568	-7.82628	126.71	21.1879	20.7124	134.16	-8.5517	-19.9857	118.394	-10.4048	-31.376	100.937	-5.30875	-46.2504	174.295	-8.11785	5.11276	188.162	-5.92495	36.6137	191.314	25.101	18.7298	
70	0.583333	170.731	57.5605	35.7188	154.737	69.1856	10.5649	142.153	81.8572	-15.5776	129.264	79.8532	-34.9917	146.969	51.2807	-38.7738	118.161	61.3507	-32.89	123.831	61.9151	2.58587	137.933	31.6716	-35.1758	112.263	44.381	-19.6163	134.438	35.7074	12.3836	136.542	17.5357	-26.8846	110.329	25.5344	-12.8051	128.27	28.7651	16.9179	146.327	-0.395696	-26.5137	130.631	0.577852	-42.6126	119.826	4.80821	-56.3412	180.569	2.66512	3.23016	190.185	1.54546	32.4279	194.531	33.7786	18.3819	
71	0.591667	166.424	61.9598	37.5529	151.095	76.7834	15.7816	139.628	81.8099	-13.6525	127.924	84.7896	-35.9705	153.38	62.3831	-36.1511	120.205	61.7178	-32.9676	118.698	62.7164	-1.86882	142.881	44.2346	-36.9203	116.243	45.4562	-22.2688	141.227	41.0162	12.5178	143.571	24.0909	-31.162	118.332	22.1523	-17.491	134.05	27.8927	15.2148	158.793	5.43182	-28.7906	148.479	10.575	-46.0009	136.107	12.1769	-63.2592	191.414	12.3322	5.01577	196.239	9.57416	37.5611	193.086	43.7524	26.4558	
72	0.6	160.97	60.6905	44.1293	146.195	74.7113	15.8178	136.722	83.737	-10.565	127.515	85.8823	-32.5758	157.96	68.2495	-31.796	121.87	63.2871	-34.3863	119.208	55.7744	-2.82239	150.004	48.9689	-36.4631	121.992	40.4745	-23.6839	140.73	40.024	9.85419	155.597	31.039	-33.5334	125.843	26.2989	-21.5257	138.805	22.9775	9.76915	173.006	16.799	-30.3748	161.111	21.8712	-53.0601	152.984	21.9266	-74.6351	198.452	24.2756	6.04124	201.787	16.3151	32.3963	191.865	54.7059	26.8187	
73	0.608333	157.461	58.3891	42.709	139.957	72.8099	21.061	132.849	80.716	-6.42246	126.712	85.7117	-28.0921	157.627	75.2004	-29.1708	125.097	67.8607	-35.5833	117.899	52.858	-7.91851	155.873	55.2129	-35.3359	129.632	41.1928	-29.0181	144.727	36.8964	7.81092	164.977	38.2806	-33.9112	136.602	21.4299	-28.4124	144.861	20.5453	4.66282	185.097	25.1879	-31.9985	177.733	28.7161	-54.7249	170.321	35.2068	-77.0419	201.284	35.622	7.55368	205.251	23.3478	37.9392	189.456	57.3628	35.076	
74	0.616667	153.546	50.0596	44.0095	139.467	63.499	18.2079	130.375	74.2134	-5.08556	126.215	79.5449	-28.7248	157.187	76.4531	-25.6929	128.024	61.7702	-37.3874	125.221	42.1655	-12.607	159.791	56.899	-34.3844	137.373	35.1289	-30.9672	150.132	29.3272	3.79734	173.714	41.7289	-34.4479	147.432	19.6442	-30.9897	151.106	15.5323	-1.79691	194.971	33.4542	-30.7112	188.125	40.0923	-54.5376	180.895	47.0478	-73.9567	206.93	39.9968	9.21676	208.529	26.3245	40.9265	187.758	59.3093	35.5217	
75	0.625	151.101	42.5427	42.568	135.016	53.8444	20.1321	125.681	65.904	-4.57476	121.694	75.4924	-30.3539	155.162	74.0998	-26.0218	132.676	56.3085	-39.3992	128.247	36.4981	-13.5558	164.051	59.0383	-31.6103	141.642	32.2062	-33.7145	157.629	26.479	3.75944	176.564	41.7803	-37.6561	156.81	21.9372	-38.7787	159.823	12.2434	-5.46909	201.865	38.6191	-27.9359	197.73	43.999	-48.2258	191.886	52.7744	-71.5028	209.16	43.5987	13.0076	209.924	27.4244	41.8841	183.893	58.5285	39.6159	
76	0.633333	150.902	32.9421	42.0568	135.414	47.6075	14.6636	126.636	57.383	-8.55277	119.862	65.7046	-31.1524	158.93	70.3297	-23.1988	134.493	52.9243	-41.7142	137.782	27.1876	-15.5169	165.774	55.7633	-33.5096	149.729	26.5257	-38.3284	158.694	20.4194	-1.30526	181.743	43.5047	-33.7032	164.476	15.7068	-39.1287	166.292	7.67339	-8.34471	204.454	41.5786	-25.9059	201.527	47.7425	-45.9129	195.018	58.0513	-68.3055	207.566	42.2654	19.8344	214.324	28.916	41.5209	182.961	49.5036	43.8229	
77	0.641667	150.167	25.9582	39.2019	137.816	34.6948	13.515	126.873	48.3401	-10.4107	122.63	55.8727	-34.8564	153.561	66.3568	-27.7921	139.205	43.9477	-44.5055	142.475	20.3318	-20.9218	168.907	49.6429	-35.8792	152.74	23.2263	-41.0959	165.573	13.2508	-4.49635	186.115	37.3087	-39.7004	169.683	14.4217	-41.8929	169.158	2.5198	-11.5402	210.943	39.5685	-27.9654	206.057	46.5675	-49.3175	200.235	54.1817	-72.0951	207.824	41.6975	17.2875	213.923	25.4077	40.7425	182.884	44.3556	39.4938	
78	0.65	149.592	17.1332	37.612	134.931	26.1002	12.3226	125.971	43.0234	-17.6873	130.282	47.498	-40.7298	158.413	56.6413	-27.4089	141.372	36.7873	-49.4568	144.595	12.7281	-25.1895	172.326	44.7964	-35.4777	161.814	14.1979	-46.0099	167.099	6.2286	-7.78234	189.747	32.1427	-39.0423	178.491	3.89322	-43.7561	176.287	-3.02199	-11.7011	211.653	38.1273	-30.487	210.684	42.1923	-48.2905	203.658	50.3006	-69.0753	207.663	39.6066	18.9483	210.327	23.733	45.7504	179.901	39.7221	37.2755	
79	0.658333	149.571	10.3206	32.6854	134.905	20.6128	8.16181	130.231	29.2013	-16.9317	138.034	36.413	-42.5358	156.021	49.7121	-35.2441	148.582	25.9633	-55.7926	142.863	5.30956	-30.8867	171.569	37.2979	-39.3558	163.454	6.9607	-49.3928	169.261	1.39618	-6.9004	190.359	28.0699	-37.4364	180.084	-2.33736	-45.8338	179.601	-8.68591	-11.8307	214.831	33.2266	-31.0625	208.232	37.4351	-49.0742	209.297	42.7447	-74.4652	206.148	34.9677	18.659	208.087	21.9423	42.6835	175.823	32.4306	36.246	
80	0.666667	150.171	4.10456	31.6826	136.364	15.9934	2.63909	135.16	24.1546	-24.703	149.994	24.6695	-48.9298	158.897	42.7119	-39.6559	147.464	20.8241	-61.7883	146.835	-5.29096	-40.3984	174.214	27.1642	-45.0556	168.187	-3.48845	-52.5853	169.126	-7.56011	-12.6013	192.325	20.4662	-41.4686	182.93	-8.46533	-48.8498	179.928	-17.1659	-15.2918	213.213	26.0201	-32.2004	213.438	28.2542	-55.7487	212.099	30.7597	-80.2998	204.067	30.6097	15.4224	208.231	16.7842	40.0232	174.758	27.0219	32.5394	
81	0.675	151.378	-0.0115578	27.6941	138.896	8.4985	-0.524409	138.246	16.365	-29.5871	159.277	12.3601	-46.8129	156.968	34.4634	-44.0797	148.439	11.5057	-65.4241	147.786	-15.2577	-43.1079	177.906	17.0203	-52.0077	170.267	-14.2698	-51.9086	170.573	-13.0627	-13.9635	195.2	9.56884	-47.0151	183.349	-20.1493	-49.1242	184.946	-24.7377	-14.9695	216.781	16.8157	-37.548	218.533	17.0749	-58.8074	217.528	20.0006	-80.6224	206.914	23.327	12.4482	213.278	12.2486	38.3216	180.175	23.5525	27.203	
82	0.683333	150.149	-0.393691	24.1004	140.88	5.00422	-4.02455	142.297	10.5696	-34.0156	158.732	5.17536	-53.6598	165.315	23.3091	-50.7324	154.66	1.08079	-69.006	152.517	-21.6619	-46.6623	179.803	8.42471	-52.5399	167.946	-20.5577	-56.7287	173.58	-18.22	-13.1502	196.762	-1.17893	-49.8458	184.965	-29.7324	-48.0071	183.858	-32.1548	-17.6831	220.051	6.12507	-36.609	222.79	4.516	-60.3539	221.84	5.59414	-81.1701	211.103	19.4943	4.1361	212.44	11.7202	33.3584	180.177	21.4323	20.5791	
83	0.691667	155.726	-1.77748	22.9723	141.966	1.39708	-7.96393	138.609	3.57682	-35.0424	146.555	-0.11935	-60.6138	172.15	13.0603	-52.0251	156.018	-14.5361	-66.8818	149.636	-26.0361	-35.4255	186.377	-2.25335	-54.379	171.889	-31.4547	-54.6498	172.707	-25.8524	-14.9823	199.576	-10.1471	-47.3013	189.283	-38.8177	-48.8296	180.25	-37.1923	-14.1266	222.845	-6.10103	-41.0607	222.953	-9.3173	-63.0062	224.305	-11.5432	-82.1699	216.991	11.9068	3.42798	217.771	4.06552	35.231	185.579	20.4707	18.4825	
84	0.7	156.861	-0.0749172	21.6129	146.825	-1.48531	-8.18818	138.484	-1.9291	-38.5844	141.741	-9.32917	-58.7814	168.576	2.26674	-56.0062	155.344	-27.287	-60.7997	150.213	-30.2441	-28.0501	184.308	-13.8724	-52.704	166.527	-43.4267	-47.9182	172.947	-31.826	-10.2701	196.746	-25.3287	-49.0903	186.215	-53.401	-42.3648	175.992	-43.962	-11.6368	223.718	-22.4506	-34.5511	225.647	-29.6004	-58.0331	219.752	-34.8964	-79.3115	214.763	4.83599	-0.919907	218.588	0.886862	30.5288	190.286	15.5677	13.4784	
85	0.708333	159.142	3.65058	19.9662	144.253	-0.674248	-6.24397	138.832	-7.89763	-34.7331	133.509	-17.2734	-55.6884	167.686	-12.6216	-51.7974	145.617	-37.8292	-54.3711	142.287	-33.6432	-19.5109	175.389	-31.4678	-52.248	157.53	-53.9018	-42.6574	164.177	-35.1886	-4.16407	191.723	-46.3681	-42.5332	170.328	-63.2906	-34.3413	170.556	-50.5092	-0.991126	214.273	-44.2972	-34.6927	212.354	-55.0058	-52.2527	201.23	-66.4953	-73.4237	215.121	-9.12289	0.988125	218.541	-8.06796	32.6539	194.572	10.264	14.3637	
86	0.716667	160.473	9.60635	19.561	142.01	5.09467	-3.33363	132.736	-4.35794	-33.7815	129.264	-21.6138	-49.7532	161.283	-21.7877	-51.495	137.828	-40.5283	-49.9998	133.978	-34.4752	-13.2702	169.55	-40.3199	-46.8391	143.76	-57.1191	-32.8602	154.986	-34.2398	-0.321023	178.648	-56.1709	-37.4169	154.543	-66.1688	-22.9284	158.03	-45.8164	3.49423	202.241	-56.4778	-28.2974	194.029	-69.2426	-47.4777	180.77	-83.2346	-60.3901	212.268	-20.0002	-1.67087	221.226	-11.9608	28.4121	196.489	7.82285	7.0327	
87	0.725	164.394	13.6764	23.4336	146.093	8.9844	-5.9317	133.619	-5.03732	-31.5027	136.834	-32.9575	-39.7227	155.263	-22.937	-47.957	127.706	-37.3909	-47.1061	117.865	-30.5181	-14.8262	156.727	-42.159	-43.586	130.456	-50.9674	-28.9634	144.647	-35.7795	4.15978	166.166	-56.3828	-32.6035	143.437	-65.9076	-14.8167	150.086	-45.0458	9.12592	191.535	-64.6627	-23.7041	176.764	-77.1343	-39.4586	152.563	-92.0936	-42.9199	210.512	-26.2203	0.133389	216.872	-18.5175	26.2912	196.765	4.37955	9.48384	
88	0.733333	167.061	16.8224	24.7249	144.441	14.6146	-3.44552	133.511	-3.53537	-24.589	134.412	-31.9133	-27.0608	149.737	-22.5598	-43.4299	117.455	-35.0106	-40.3471	111.869	-23.2306	-8.76531	149.233	-44.8063	-38.4904	121.591	-49.3502	-24.718	135.894	-29.4943	9.14235	152.411	-54.1282	-27.1046	130.192	-58.2662	-6.9335	147.549	-39.5345	16.5576	178.391	-64.4258	-18.6575	156.904	-80.5487	-31.3724	127.975	-82.5344	-21.6562	200.48	-30.7574	-1.83713	213.297	-21.7224	24.2053	196.294	2.43657	6.26461	
89	0.741667	169.172	16.6178	18.7027	146.621	16.7031	-2.30674	129.346	0.0150138	-24.7521	125.567	-25.5032	-22.339	141.736	-20.09	-40.9331	110.25	-24.0488	-39.1726	105.859	-17.8592	-3.34096	140.437	-41.1787	-33.6765	110.373	-39.4776	-17.9563	131.624	-22.3104	11.8619	140.998	-52.6956	-21.8502	120.716	-53.953	-1.81663	136.847	-32.7338	18.9243	163.726	-69.153	-14.1419	140.558	-75.7729	-23.5155	115	-72.9312	-8.69395	196.374	-37.6867	2.89118	209.504	-30.6832	25.9921	194.759	-1.19793	2.26417	
90	0.75	171.838	19.7253	19.3372	147.575	19.6869	-5.64246	127.075	3.15172	-24.9869	116.186	-22.4512	-21.8179	133.358	-15.7951	-40.6165	103.703	-19.0927	-32.2116	102.363	-5.503	-1.83134	132.137	-37.8054	-29.6366	102.994	-30.1279	-13.1138	125.436	-17.5428	15.6174	132.743	-51.4597	-14.6832	111.257	-41.8093	7.63038	135.954	-27.1967	23.8109	149.937	-65.9262	-7.7015	122.402	-72.6588	-12.7385	104.428	-60.1095	2.67766	186.356	-40.202	1.04892	205.554	-30.0392	28.8239	193.365	-4.70135	1.54232	
91	0.758333	174.549	16.2298	17.8361	149.329	22.1392	-6.51279	127.131	12.7529	-18.2398	108.598	-8.47766	-21.8871	128.01	-15.1098	-35.3684	97.4156	-5.25092	-23.8746	107.441	4.64458	4.79067	121.665	-32.2677	-24.425	98.2935	-18.945	-2.68253	128.894	-10.5711	18.6524	121.211	-44.023	-9.75336	104.611	-33.0021	15.8917	130.036	-19.3504	27.4411	138.057	-66.074	-0.792004	108.971	-63.5814	-6.0843	93.7033	-49.2525	9.09061	178.939	-44.8962	3.61265	199.814	-37.7025	29.361	191.725	-9.26992	4.38847	
